<?xml version="1.0" encoding="utf-8"?>
<!-- Generator: Adobe Illustrator 26.3.1, SVG Export Plug-In . SVG Version: 6.00 Build 0)  -->
<svg version="1.1" id="Layer_1" xmlns="http://www.w3.org/2000/svg" xmlns:xlink="http://www.w3.org/1999/xlink" x="0px" y="0px"
	 viewBox="0 0 74.2 74.3" style="enable-background:new 0 0 74.2 74.3;" xml:space="preserve">
<style type="text/css">
	.st0{fill:#444444;}
</style>
<g>
	<path class="st0" d="M36.8,32.5l1.8-0.5l0-4l-1.8,0v-2.4h1.8l0-2.1c0-1.7,0.5-3.1,1.4-4c0.9-0.9,2.2-1.4,3.8-1.4
		c2.5,0,3.9,1.1,5,2.6l-2.1,1.7c-0.8-1-1.6-1.7-2.9-1.7c-0.7,0-1.2,0.2-1.7,0.6c-0.5,0.5-0.8,1.3-0.8,2.2l0,2l5.7,0l0,2.4l-5.7,0
		l0,3.9l7.4,0v2.4l-12,0V32.5z"/>
</g>
<path class="st0" d="M68.3,43.7c-1.5-1.8-4.2-2.2-6.4-1.1l-8,4.3c-0.2-0.3-0.4-0.6-0.6-0.8c-1-1-2.3-1.6-3.7-1.6H37.4
	c-0.6,0-1.3-0.2-1.9-0.5c-1.5-0.9-4.2-2-8.4-2c-7.2,0-12.8,4.7-14.9,6.9L12,48.6c-0.5-0.5-1.4-0.5-1.9,0l-5,5
	c-0.5,0.5-0.5,1.4,0,1.9C5.6,56,6.5,56,7,55.5l4-4l13,13l-2.8,2.8c-0.5,0.5-0.5,1.4,0,1.9c0.3,0.3,0.6,0.4,1,0.4
	c0.3,0,0.7-0.1,1-0.4l3.7-3.7c0.5-0.5,1.3-0.8,2-0.8h14c2.1,0,4.2-0.6,6-1.7l18.2-11.4c1.3-0.8,2.1-2.1,2.4-3.6
	C69.7,46.4,69.3,44.9,68.3,43.7z M66.8,47.5c-0.1,0.7-0.5,1.3-1.1,1.7L47.5,60.6c-1.4,0.9-2.9,1.3-4.6,1.3h-14c-1,0-2,0.3-2.9,0.8
	L14.1,50.8c1.9-1.9,6.8-6.1,13-6.1c3.8,0,6,1,7,1.6c1,0.6,2.1,0.9,3.3,0.9h12.1c0.7,0,1.3,0.3,1.7,0.7c0.5,0.5,0.7,1.1,0.6,1.8
	c-0.1,1.2-1.2,2.2-2.6,2.2H33.4c-0.8,0-1.4,0.6-1.4,1.4c0,0.8,0.6,1.4,1.4,1.4h15.9c2.8,0,5.2-2.1,5.3-4.8c0-0.1,0-0.2,0-0.3
	l8.6-4.6c1.1-0.5,2.3-0.3,3,0.5C66.7,46.1,66.9,46.8,66.8,47.5z"/>
<g>
	<path class="st0" d="M60.7,40.6c-0.3,0-0.5-0.1-0.8-0.2c-0.6-0.4-0.8-1.3-0.3-1.9c2.3-3.3,3.5-7.2,3.5-11.2
		c0-10.9-8.9-19.8-19.8-19.8c-10.9,0-19.8,8.9-19.8,19.8c0,3.7,1.1,7.4,3.1,10.5c0.4,0.6,0.2,1.5-0.4,1.9c-0.6,0.4-1.5,0.2-1.9-0.4
		c-2.3-3.6-3.5-7.8-3.5-12c0-12.4,10.1-22.5,22.5-22.5s22.5,10.1,22.5,22.5c0,4.6-1.4,9-4,12.8C61.5,40.4,61.1,40.6,60.7,40.6z"/>
</g>
</svg>
