<?xml version="1.0" encoding="utf-8"?>
<!-- Generator: Adobe Illustrator 26.3.1, SVG Export Plug-In . SVG Version: 6.00 Build 0)  -->
<svg version="1.1" id="Layer_1" xmlns="http://www.w3.org/2000/svg" xmlns:xlink="http://www.w3.org/1999/xlink" x="0px" y="0px"
	 viewBox="0 0 74.2 74.3" style="enable-background:new 0 0 74.2 74.3;" xml:space="preserve">
<style type="text/css">
	.st0{fill:#444444;}
</style>
<g>
	<g>
		<g>
			<path class="st0" d="M42.2,59c-0.1,0-0.2,0-0.3,0c-2.6-0.3-2.7-3.5-2.6-8.8c0.1-2-0.3-5.2-1.2-6.2c-0.2-0.2-0.4-0.2-0.5-0.2
				s-0.3,0-0.5,0.2c-1,1-1.3,4.2-1.2,6.2c0.1,5.3,0,8.5-2.6,8.8c-0.9,0.1-2.1-0.4-2.5-0.6c-4.7-1.6-4.7-6.8-4.7-7
				c-0.5-7.9-5.4-15.6-5.5-15.7c-3.3-5-2.2-11.8,2.4-15.4c4.4-3.4,10-3,14.7,1c0,0,2.2,1.9,4.7,2c0.7,0,1.2,0.6,1.2,1.3
				c0,0.7-0.6,1.2-1.3,1.2c-3.5-0.2-6.2-2.6-6.3-2.7c-3.8-3.2-8.1-3.6-11.5-0.9c-3.6,2.8-4.4,8.1-1.8,12.1c0.2,0.3,5.3,8.4,5.9,17
				c0,0.2,0,3.7,3,4.8l0.1,0.1c0.4,0.2,1,0.4,1.2,0.4c0.4-0.4,0.5-2.5,0.4-6.2c0-0.6-0.2-5.9,1.9-8c1.3-1.3,3.3-1.3,4.6,0
				c2.1,2.2,1.9,7.4,1.9,8c-0.1,3.8,0.1,5.9,0.4,6.3c0.2,0,0.8-0.2,1.2-0.4l0.1-0.1c3-1,3-4.5,3-4.7c0.5-8.7,5.7-16.7,5.9-17.1
				c2.6-4,1.8-9.3-1.8-12.1C48,20.3,45,20,42,21.2c-0.6,0.3-1.4,0-1.6-0.7s0-1.4,0.7-1.6c3.8-1.6,7.8-1.1,11,1.4
				c4.6,3.6,5.6,10.3,2.4,15.4c0,0.1-5,7.8-5.5,15.8c0,0.1,0,5.3-4.7,6.9C44.1,58.6,43.1,59,42.2,59z"/>
		</g>
	</g>
	<g>
		<g>
			<g>
				<path class="st0" d="M72.9,38.5h-8.1c-0.7,0-1.2-0.6-1.2-1.2s0.6-1.2,1.2-1.2h8.1c0.7,0,1.2,0.6,1.2,1.2S73.6,38.5,72.9,38.5z"
					/>
			</g>
		</g>
		<g>
			<g>
				<path class="st0" d="M9.4,38.5H1.3c-0.7,0-1.2-0.6-1.2-1.2S0.6,36,1.3,36h8.1c0.7,0,1.2,0.6,1.2,1.2S10,38.5,9.4,38.5z"/>
			</g>
		</g>
	</g>
	<g>
		<g>
			<g>
				<path class="st0" d="M37.1,74.3c-0.7,0-1.2-0.6-1.2-1.2V65c0-0.7,0.6-1.2,1.2-1.2s1.2,0.6,1.2,1.2v8.1
					C38.3,73.7,37.8,74.3,37.1,74.3z"/>
			</g>
		</g>
		<g>
			<g>
				<path class="st0" d="M37.1,10.7c-0.7,0-1.2-0.6-1.2-1.2V1.4c0-0.7,0.6-1.2,1.2-1.2s1.2,0.6,1.2,1.2v8.1
					C38.3,10.2,37.8,10.7,37.1,10.7z"/>
			</g>
		</g>
	</g>
	<g>
		<g>
			<g>
				<path class="st0" d="M68.1,56.4c-0.2,0-0.4-0.1-0.6-0.2l-7-4c-0.6-0.3-0.8-1.1-0.5-1.7c0.3-0.6,1.1-0.8,1.7-0.5l7,4
					c0.6,0.3,0.8,1.1,0.5,1.7C69,56.2,68.5,56.4,68.1,56.4z"/>
			</g>
		</g>
		<g>
			<g>
				<path class="st0" d="M13.1,24.6c-0.2,0-0.4-0.1-0.6-0.2l-7-4c-0.6-0.3-0.8-1.1-0.5-1.7s1.1-0.8,1.7-0.5l7,4
					c0.6,0.3,0.8,1.1,0.5,1.7C13.9,24.4,13.5,24.6,13.1,24.6z"/>
			</g>
		</g>
	</g>
	<g>
		<g>
			<g>
				<path class="st0" d="M19.2,69.5c-0.2,0-0.4-0.1-0.6-0.2c-0.6-0.3-0.8-1.1-0.5-1.7l4-7c0.3-0.6,1.1-0.8,1.7-0.5s0.8,1.1,0.5,1.7
					l-4,7C20,69.3,19.6,69.5,19.2,69.5z"/>
			</g>
		</g>
		<g>
			<g>
				<path class="st0" d="M51,14.5c-0.2,0-0.4-0.1-0.6-0.2c-0.6-0.3-0.8-1.1-0.5-1.7l4-7C54.3,5,55,4.8,55.6,5.1
					c0.6,0.3,0.8,1.1,0.5,1.7l-4,7C51.8,14.2,51.4,14.5,51,14.5z"/>
			</g>
		</g>
	</g>
	<g>
		<g>
			<g>
				<path class="st0" d="M55,69.5c-0.4,0-0.9-0.2-1.1-0.6l-4-7c-0.3-0.6-0.1-1.4,0.5-1.7s1.4-0.1,1.7,0.5l4,7
					c0.3,0.6,0.1,1.4-0.5,1.7C55.4,69.5,55.2,69.5,55,69.5z"/>
			</g>
		</g>
		<g>
			<g>
				<path class="st0" d="M23.2,14.5c-0.4,0-0.9-0.2-1.1-0.6l-4-7c-0.3-0.6-0.1-1.4,0.5-1.7c0.6-0.3,1.4-0.1,1.7,0.5l4,7
					c0.3,0.6,0.1,1.4-0.5,1.7C23.7,14.4,23.4,14.5,23.2,14.5z"/>
			</g>
		</g>
	</g>
	<g>
		<g>
			<g>
				<path class="st0" d="M6.1,56.4c-0.4,0-0.9-0.2-1.1-0.6c-0.3-0.6-0.1-1.4,0.5-1.7l7-4c0.6-0.3,1.4-0.1,1.7,0.5s0.1,1.4-0.5,1.7
					l-7,4C6.5,56.3,6.3,56.4,6.1,56.4z"/>
			</g>
		</g>
		<g>
			<g>
				<path class="st0" d="M61.1,24.6c-0.4,0-0.9-0.2-1.1-0.6c-0.3-0.6-0.1-1.4,0.5-1.7l7-4c0.6-0.3,1.4-0.1,1.7,0.5
					c0.3,0.6,0.1,1.4-0.5,1.7l-7,4C61.5,24.6,61.3,24.6,61.1,24.6z"/>
			</g>
		</g>
	</g>
</g>
</svg>
