<?xml version="1.0" encoding="utf-8"?>
<!-- Generator: Adobe Illustrator 26.5.0, SVG Export Plug-In . SVG Version: 6.00 Build 0)  -->
<svg version="1.1" id="Layer_1" xmlns="http://www.w3.org/2000/svg" xmlns:xlink="http://www.w3.org/1999/xlink" x="0px" y="0px"
	 viewBox="0 0 74.2 74.3" style="enable-background:new 0 0 74.2 74.3;" xml:space="preserve">
<style type="text/css">
	.st0{fill:#444444;}
</style>
<path class="st0" d="M30.1,39.9c-0.3,0-0.6-0.1-0.9-0.3c-0.5-0.3-0.7-0.9-0.6-1.5l1.2-7l-5.1-5c-0.4-0.4-0.6-1-0.4-1.5
	c0.2-0.5,0.6-0.9,1.2-1l7-1l3.2-6.4c0.3-0.5,0.8-0.8,1.3-0.8l0,0c0.6,0,1.1,0.3,1.3,0.8l3.2,6.4l7,1c0.6,0.1,1,0.5,1.2,1
	c0.2,0.5,0,1.1-0.4,1.5l-5.1,5l1.2,7c0.1,0.6-0.1,1.1-0.6,1.5c-0.5,0.3-1.1,0.4-1.6,0.1l-6.3-3.3l-6.3,3.3
	C30.6,39.8,30.3,39.9,30.1,39.9z M29,26.1l3.5,3.4c0.3,0.3,0.5,0.8,0.4,1.3l-0.8,4.8l4.3-2.3c0.4-0.2,1-0.2,1.4,0l4.3,2.3l-0.8-4.8
	c-0.1-0.5,0.1-1,0.4-1.3l3.5-3.4l-4.8-0.7c-0.5-0.1-0.9-0.4-1.1-0.8l-2.2-4.4l-2.2,4.4c-0.2,0.4-0.6,0.7-1.1,0.8L29,26.1z M37.1,6.6
	c0.9,0,1.7,0.3,2.4,1l3.4,3.6c0.6,0.7,1.5,1,2.4,1c0,0,0.1,0,0.1,0l4.9-0.2c0,0,0.1,0,0.1,0c1.8,0,3.3,1.5,3.2,3.3l-0.2,4.9
	c0,0.9,0.3,1.8,1,2.5l3.6,3.4c1.4,1.3,1.4,3.4,0,4.7l-3.6,3.4c-0.7,0.6-1.1,1.5-1,2.5l0.2,4.9c0.1,1.8-1.4,3.3-3.2,3.3
	c0,0-0.1,0-0.1,0l-4.9-0.2c0,0-0.1,0-0.1,0c-0.9,0-1.7,0.4-2.4,1l-3.4,3.6c-0.6,0.7-1.5,1-2.4,1s-1.7-0.3-2.4-1l-3.4-3.6
	c-0.6-0.7-1.5-1-2.4-1c0,0-0.1,0-0.1,0L24,45.1c0,0-0.1,0-0.1,0c-1.8,0-3.3-1.5-3.2-3.3l0.2-4.9c0-0.9-0.3-1.8-1-2.5L16.2,31
	c-1.4-1.3-1.4-3.4,0-4.7l3.6-3.4c0.7-0.6,1.1-1.5,1-2.5l-0.2-4.9c-0.1-1.8,1.4-3.3,3.2-3.3c0,0,0.1,0,0.1,0l4.9,0.2c0,0,0.1,0,0.1,0
	c0.9,0,1.7-0.4,2.4-1l3.4-3.6C35.4,7,36.2,6.6,37.1,6.6 M37.1,3.6c-1.7,0-3.4,0.7-4.5,2l-3.4,3.6c0,0-0.1,0.1-0.2,0.1l-4.9-0.2
	c-0.1,0-0.1,0-0.2,0c-1.7,0-3.3,0.7-4.5,1.9c-1.2,1.2-1.8,2.8-1.7,4.5l0.2,4.9c0,0.1,0,0.1-0.1,0.2l-3.6,3.4c-1.3,1.2-2,2.8-2,4.5
	s0.7,3.4,2,4.5l3.6,3.4c0,0,0.1,0.1,0.1,0.2l-0.2,4.9c-0.1,1.7,0.6,3.3,1.7,4.5c1.2,1.2,2.8,1.9,4.5,1.9c0.1,0,0.1,0,0.2,0l4.9-0.2
	c0,0,0,0,0,0c0.1,0,0.1,0,0.2,0.1l3.4,3.6c1.2,1.3,2.8,2,4.5,2s3.4-0.7,4.5-2L45,48c0,0,0.1-0.1,0.2-0.1l4.9,0.2c0.1,0,0.1,0,0.2,0
	c1.7,0,3.3-0.7,4.5-1.9c1.2-1.2,1.8-2.8,1.7-4.5l-0.2-4.9c0-0.1,0-0.1,0.1-0.2l3.6-3.4c1.3-1.2,2-2.8,2-4.5s-0.7-3.4-2-4.5l-3.6-3.4
	c0,0-0.1-0.1-0.1-0.2l0.2-4.9c0.1-1.7-0.6-3.3-1.7-4.5c-1.2-1.2-2.8-1.9-4.5-1.9c-0.1,0-0.1,0-0.2,0l-4.9,0.2c0,0,0,0,0,0
	c-0.1,0-0.1,0-0.2-0.1l-3.4-3.6C40.5,4.4,38.8,3.6,37.1,3.6L37.1,3.6z M49.1,70.5c0.5-0.3,0.8-0.8,0.8-1.3V53.4
	c0-0.8-0.7-1.5-1.5-1.5s-1.5,0.7-1.5,1.5v13.1l-9-5.6c-0.5-0.3-1.1-0.3-1.6,0l-9,5.6V53.4c0-0.8-0.7-1.5-1.5-1.5s-1.5,0.7-1.5,1.5
	v15.8c0,0.5,0.3,1,0.8,1.3c0.5,0.3,1.1,0.3,1.5,0l10.5-6.5l10.5,6.5c0.2,0.2,0.5,0.2,0.8,0.2C48.7,70.7,48.9,70.6,49.1,70.5z"/>
</svg>
