<?xml version="1.0" encoding="utf-8"?>
<!-- Generator: Adobe Illustrator 27.3.0, SVG Export Plug-In . SVG Version: 6.00 Build 0)  -->
<svg version="1.1" id="Layer_1" xmlns="http://www.w3.org/2000/svg" xmlns:xlink="http://www.w3.org/1999/xlink" x="0px" y="0px"
	 viewBox="0 0 74.2 74.3" style="enable-background:new 0 0 74.2 74.3;" xml:space="preserve">
<style type="text/css">
	.st0{fill:#444444;}
</style>
<g>
	<path class="st0" d="M54,11.9c-3.7-2.9-8.3-3.5-12.7-1.6c-0.8,0.2-1,1-0.8,1.9c0.2,0.8,1.2,1.2,1.9,0.8c3.5-1.4,6.9-1,9.8,1.3
		c4.2,3.2,5.1,9.4,2.1,14c-0.2,0.3-2.7,4.1-4.7,9.7H24.6c-2-5.5-4.5-9.5-4.6-9.8c-3-4.6-2.1-10.8,2.1-14c3.9-3.1,8.9-2.7,13.3,1
		c0.1,0.1,3.2,2.9,7.3,3.1c0.8,0,1.5-0.6,1.5-1.4c0-0.8-0.6-1.5-1.4-1.5c-2.9-0.1-5.4-2.3-5.4-2.3c-5.4-4.6-11.9-5.1-17-1.2
		c-5.3,4.2-6.6,12-2.8,17.8c0.1,0.1,3.1,4.8,5,10.9l0,0v0h4.6l0.4,3.7h-1.7c-0.8,0-1.4,0.6-1.4,1.4s0.6,1.4,1.4,1.4h2l0.4,3.8h-2.4
		c-0.8,0-1.4,0.6-1.4,1.4s0.6,1.4,1.4,1.4h2.7l0.4,3.8h-2.5c-0.8,0-1.4,0.6-1.4,1.4s0.6,1.4,1.4,1.4h2.8l0.7,6.5h6.1h2.4h6.1
		l0.7-6.5h3.4c0.8,0,1.4-0.6,1.4-1.4s-0.6-1.4-1.4-1.4h-3.1l0.4-3.8h2.7c0.8,0,1.4-0.6,1.4-1.4S49.3,51,48.5,51h-2.4l0.4-3.8h2
		c0.8,0,1.4-0.6,1.4-1.4s-0.6-1.4-1.4-1.4h-1.7l0.4-3.7h4.6v0l0,0c1.9-6.1,4.9-10.9,4.9-10.9C60.4,23.8,59.3,16.1,54,11.9z
		 M41.8,64.2h-3.5h-2.4h-3.5L32,60.6h10.2L41.8,64.2z M42.5,57.7H31.7l-0.4-3.8h11.5L42.5,57.7z M43.2,51H31l-0.4-3.8h12.9L43.2,51z
		 M43.8,44.4H30.4L30,40.7h14.3L43.8,44.4z"/>
</g>
</svg>
