<?xml version="1.0" encoding="utf-8"?>
<!-- Generator: Adobe Illustrator 26.5.0, SVG Export Plug-In . SVG Version: 6.00 Build 0)  -->
<svg version="1.1" id="Layer_1" xmlns="http://www.w3.org/2000/svg" xmlns:xlink="http://www.w3.org/1999/xlink" x="0px" y="0px"
	 viewBox="0 0 74.2 74.3" style="enable-background:new 0 0 74.2 74.3;" xml:space="preserve">
<style type="text/css">
	.st0{fill:#444444;}
</style>
<g>
	<path class="st0" d="M37.1,11.4l8,16.2l17.8,2.6L50,42.8l3,17.8l-15.9-8.4l-16,8.4l3-17.8L11.3,30.2l17.8-2.6L37.1,11.4 M37.1,8.3
		c-1.2,0-2.3,0.7-2.8,1.7L27,24.8l-16.2,2.4c-1.2,0.2-2.1,1-2.5,2.1c-0.4,1.1-0.1,2.4,0.8,3.2l11.7,11.5l-2.7,16.2
		c-0.2,1.2,0.3,2.3,1.2,3c0.5,0.4,1.2,0.6,1.8,0.6c0.5,0,1-0.1,1.4-0.4l14.5-7.6l14.5,7.6c0.5,0.2,1,0.4,1.5,0.4
		c0.6,0,1.3-0.2,1.8-0.6c1-0.7,1.4-1.9,1.2-3l-2.7-16.2l11.7-11.5c0.8-0.8,1.1-2.1,0.8-3.2s-1.3-1.9-2.5-2.1l-16.2-2.4L39.9,10
		C39.4,9,38.3,8.3,37.1,8.3L37.1,8.3z"/>
</g>
</svg>
