<?xml version="1.0" encoding="utf-8"?>
<!-- Generator: Adobe Illustrator 26.3.1, SVG Export Plug-In . SVG Version: 6.00 Build 0)  -->
<svg version="1.1" id="Layer_1" xmlns="http://www.w3.org/2000/svg" xmlns:xlink="http://www.w3.org/1999/xlink" x="0px" y="0px"
	 viewBox="0 0 512 512" style="enable-background:new 0 0 512 512;" xml:space="preserve">
<style type="text/css">
	.st0{fill:#FFFFFF;}
</style>
<g>
	<path class="st0" d="M512,256c0-34.6-6.8-68.1-20.1-99.7C479,125.9,460.5,98.5,437,75s-50.9-42-81.4-54.9C324.1,6.8,290.6,0,256,0
		s-68.1,6.8-99.7,20.1C125.9,33,98.5,51.5,75,75s-42,50.9-54.9,81.4C6.8,187.9,0,221.4,0,256s6.8,68.1,20.1,99.7
		C33,386.1,51.5,413.5,75,437s50.9,42,81.4,54.9c31.6,13.3,65.1,20.1,99.7,20.1s68.1-6.8,99.7-20.1c30.5-12.9,57.9-31.4,81.4-54.9
		c23.5-23.5,42-50.9,54.9-81.4C505.2,324.1,512,290.6,512,256z M256,482.9C130.9,482.9,29.1,381.1,29.1,256
		C29.1,130.9,130.9,29.1,256,29.1S482.9,130.9,482.9,256S381.1,482.9,256,482.9z"/>
	<path class="st0" d="M209.5,335.8c3.5,3.5,8.2,5.5,13.2,5.5s9.7-1.9,13.2-5.5l133.2-133.2c7.3-7.3,7.3-19.2,0-26.5
		c-3.5-3.5-8.2-5.5-13.2-5.5c-5,0-9.7,1.9-13.2,5.5L230.1,288.8l-7.4,7.4l-7.4-7.4l-46-46c-3.5-3.5-8.2-5.5-13.2-5.5
		s-9.7,1.9-13.2,5.5c-7.3,7.3-7.3,19.2,0,26.5L209.5,335.8z"/>
</g>
</svg>
