<?xml version="1.0" encoding="utf-8"?>
<!-- Generator: Adobe Illustrator 26.0.2, SVG Export Plug-In . SVG Version: 6.00 Build 0)  -->
<svg version="1.1" id="Layer_1" xmlns="http://www.w3.org/2000/svg" xmlns:xlink="http://www.w3.org/1999/xlink" x="0px" y="0px"
	 viewBox="0 0 40.2 40.2" enable-background="new 0 0 40.2 40.2" xml:space="preserve">
<path id="Path_7" d="M22.5,20.1l5.3,5.3c0.7,0.7,0.6,1.7,0,2.4c-0.7,0.6-1.7,0.6-2.4,0l-5.3-5.3l-5.3,5.3c-0.7,0.7-1.7,0.6-2.4,0
	c-0.6-0.7-0.6-1.7,0-2.4l5.3-5.3l-5.3-5.3c-0.7-0.7-0.6-1.7,0-2.4c0.7-0.6,1.7-0.6,2.4,0l5.3,5.3l5.3-5.3c0.7-0.7,1.7-0.6,2.4,0
	c0.6,0.7,0.6,1.7,0,2.4L22.5,20.1z M20.1,40.2C9,40.2,0,31.2,0,20.1S9,0,20.1,0c11.1,0,20.1,9,20.1,20.1
	C40.2,31.2,31.2,40.2,20.1,40.2C20.1,40.2,20.1,40.2,20.1,40.2z M20.1,36.9c9.3,0,16.8-7.5,16.8-16.8c0-9.3-7.5-16.8-16.8-16.8
	c-9.3,0-16.8,7.5-16.8,16.8C3.4,29.4,10.9,36.9,20.1,36.9C20.1,36.9,20.1,36.9,20.1,36.9L20.1,36.9z"/>
</svg>
