<?xml version="1.0" encoding="utf-8"?>
<!-- Generator: Adobe Illustrator 27.3.0, SVG Export Plug-In . SVG Version: 6.00 Build 0)  -->
<svg version="1.1" id="Layer_1" xmlns="http://www.w3.org/2000/svg" xmlns:xlink="http://www.w3.org/1999/xlink" x="0px" y="0px"
	 viewBox="0 0 74.2 74.3" style="enable-background:new 0 0 74.2 74.3;" xml:space="preserve">
<style type="text/css">
	.st0{fill:#444444;}
</style>
<g>
	<path class="st0" d="M47.3,56.3c-0.4,0-0.7,0.1-1,0.3l0,0c-3.7,2.9-8.2,4.5-13,4.5H14.1l4.3-4.3c0.3-0.3,0.4-0.6,0.4-1
		s-0.1-0.7-0.4-1c-4-4-6.2-9.3-6.2-15c0-4.9,1.7-9.7,4.9-13.5c0.5-0.6,0.4-1.4-0.2-1.9c-0.3-0.2-0.6-0.3-1-0.3s-0.7,0.2-0.9,0.5
		c-3.5,4.3-5.5,9.7-5.5,15.2c0,5.9,2.2,11.5,6.1,15.9l-5.7,5.7c-0.4,0.4-0.5,1-0.3,1.5s0.7,0.8,1.2,0.8h22.5c5.3,0,10.4-1.7,14.6-5
		c0.6-0.5,0.7-1.3,0.2-1.9C48,56.5,47.7,56.4,47.3,56.3z"/>
	<path class="st0" d="M60.6,46.3c3.9-4.4,6.1-10,6.1-15.9C66.7,17.3,56,6.6,42.8,6.6C29.7,6.6,19,17.3,19,30.4
		c0,13.2,10.7,23.9,23.9,23.9h22.5c0.5,0,1-0.3,1.2-0.8s0.1-1.1-0.3-1.5L60.6,46.3z M57.8,45.4c-0.5,0.5-0.5,1.4,0,1.9l4.3,4.3H42.8
		c-11.7,0-21.2-9.5-21.2-21.2S31.1,9.2,42.8,9.2C54.5,9.2,64,18.7,64,30.4C64,36.1,61.8,41.4,57.8,45.4z"/>
</g>
<circle class="st0" cx="42.8" cy="30.4" r="2.3"/>
<circle class="st0" cx="50.4" cy="30.4" r="2.3"/>
<circle class="st0" cx="35.2" cy="30.4" r="2.3"/>
</svg>
