<?xml version="1.0" encoding="utf-8"?>
<!-- Generator: Adobe Illustrator 26.3.1, SVG Export Plug-In . SVG Version: 6.00 Build 0)  -->
<svg version="1.1" id="Layer_1" xmlns="http://www.w3.org/2000/svg" xmlns:xlink="http://www.w3.org/1999/xlink" x="0px" y="0px"
	 viewBox="0 0 2255.5 592.1" style="enable-background:new 0 0 2255.5 592.1;" xml:space="preserve">
<style type="text/css">
	.st0{fill:#FFFFFF;}
	.st1{opacity:0.5;fill:#FFFFFF;enable-background:new    ;}
	.st2{opacity:0.75;fill:#FFFFFF;enable-background:new    ;}
</style>
<g>
	<g>
		<path class="st0" d="M1997,176.7h40.9l1.3,17.1c11.9-14.5,29-22.4,47.5-22.4c44.8,0,69.9,27.7,69.9,76.5v113.4h-42.2V248
			c1.3-19.8-13.2-38.3-34.3-39.6c-19.8-1.3-38.3,13.2-39.6,34.3c0,2.6,0,4,0,6.6v112.1h-42.2L1997,176.7L1997,176.7z M1634.2,362.7
			h-43.5V92.3h43.5V362.7z M1726.6,362.7H1683v-186h43.5V362.7z M1704.1,88.4c-14.5,0-26.4,11.9-26.4,26.4
			c0,14.5,11.9,26.4,26.4,26.4s26.4-11.9,26.4-26.4l0,0C1730.5,98.9,1718.7,87.1,1704.1,88.4 M1499.7,176.7h43.5v186H1501l-1.3-19.8
			c-15.8,15.8-35.6,23.7-58,25.1c-50.1,0-88.4-40.9-88.4-97.6c0-60.7,40.9-97.6,88.4-97.6c22.4,0,43.5,7.9,58,25.1V176.7z
			 M1398.1,269.1c0,35.6,22.4,59.4,52.8,59.4c27.7,0,52.8-19.8,52.8-59.4c0-39.6-23.7-59.4-52.8-59.4
			C1419.2,209.7,1398.1,234.8,1398.1,269.1 M1907.3,269.1c0-38.3-25.1-59.4-52.8-59.4c-33,0-52.8,26.4-52.8,59.4
			s21.1,59.4,52.8,59.4C1883.5,328.4,1907.3,306,1907.3,269.1 M1948.2,342.9c0,79.1-46.2,105.5-101.6,105.5
			c-22.4,0-44.8-5.3-65.9-14.5l10.6-36.9c17.1,9.2,35.6,14.5,55.4,14.5c30.3,1.3,56.7-22.4,58-52.8c0-1.3,0-2.6,0-4v-13.2
			c-14.5,15.8-35.6,25.1-58,25.1c-50.1,0-88.4-39.6-88.4-97.6c0-55.4,35.6-97.6,88.4-97.6c22.4-1.3,43.5,7.9,58,25.1v-19.8h42.2
			L1948.2,342.9L1948.2,342.9z"/>
		<path class="st0" d="M964.2,176.7l48.8,112.1l47.5-112.1h47.5l-96.3,199.2l-95-199.2H964.2z M1204.2,319.2
			c14.5,7.9,31.7,13.2,48.8,14.5c21.1,0,30.3-9.2,30.3-21.1s-7.9-19.8-30.3-27.7c-36.9-11.9-51.4-31.7-51.4-54.1
			c0-33,26.4-59.4,69.9-59.4c17.1,0,34.3,4,50.1,11.9l-9.2,33c-11.9-6.6-25.1-10.6-39.6-10.6c-17.1,0-27.7,7.9-27.7,19.8
			c0,11.9,9.2,18.5,33,26.4c34.3,11.9,48.8,29,50.1,56.7c0,34.3-25.1,58-75.2,58c-19.8,0-39.6-4-56.7-13.2L1204.2,319.2z
			 M699.1,362.7h-42.2v-186h42.2V362.7z M678,88.4c-14.5,0-26.4,11.9-26.4,26.4c0,14.5,11.9,26.4,26.4,26.4
			c14.5,0,26.4-11.9,26.4-26.4l0,0C704.3,98.9,692.5,87.1,678,88.4 M1166,362.7h-42.2v-186h42.2V362.7L1166,362.7z M1144.9,88.4
			c-14.5,0-26.4,11.9-26.4,26.4c0,14.5,11.9,26.4,26.4,26.4s26.4-11.9,26.4-26.4l0,0C1171.3,98.9,1159.4,87.1,1144.9,88.4
			 M747.9,176.7h40.9v17.1c11.9-14.5,29-22.4,48.8-22.4c42.2,0,69.9,27.7,69.9,76.5v113.4h-42.2V250.6c2.6-19.8-11.9-39.6-31.7-42.2
			c-19.8-2.6-39.6,11.9-42.2,31.7c0,2.6,0,6.6,0,9.2v112.1h-43.5V176.7z"/>
		<path class="st1" d="M328.4,166.2c18.5,10.6,34.3,26.4,44.8,44.8c-19.8,11.9-42.2,19.8-64.6,19.8
			C308.6,208.4,315.2,184.7,328.4,166.2 M373.3,327.1c-19.8-11.9-42.2-19.8-65.9-19.8c1.3,23.7,7.9,46.2,19.8,65.9
			C346.9,362.7,362.7,346.9,373.3,327.1 M323.2,269.1c17.1,15.8,38.3,26.4,60.7,31.7c5.3-21.1,5.3-42.2,0-63.3
			C361.4,242.7,340.3,254.6,323.2,269.1 M215,269.1c-17.1-15.8-38.3-26.4-60.7-31.7c-5.3,21.1-5.3,42.2,0,63.3
			C178.1,295.5,197.8,284.9,215,269.1 M230.8,307.3c-23.7,1.3-46.2,7.9-64.6,19.8c10.6,18.5,26.4,34.3,44.8,44.8
			C222.9,353.5,230.8,331.1,230.8,307.3 M230.8,230.8c-1.3-23.7-7.9-46.2-21.1-66c-18.5,10.6-34.3,27.7-44.8,46.2
			C186,222.9,208.4,230.8,230.8,230.8 M269.1,323.2c-15.8,17.1-26.4,38.3-31.7,60.7c21.1,5.3,42.2,5.3,63.3,0
			C295.5,361.4,284.9,340.3,269.1,323.2 M269.1,215c15.8-17.1,26.4-38.3,31.7-60.7c-21.1-5.3-42.2-5.3-63.3,0
			C242.7,176.7,253.2,197.8,269.1,215"/>
		<path class="st0" d="M375.9,117.4c26.4-17.1,54.1-30.3,84.4-38.3c-7.9,30.3-21.1,58-38.3,84.4
			C408.9,145.1,394.4,129.3,375.9,117.4 M302,87.1c-6.6-30.3-17.1-60.7-33-87.1c-15.8,26.4-26.4,56.7-31.7,87.1
			c10.6-1.3,21.1-2.6,33-2.6C280.9,83.1,291.5,84.4,302,87.1 M375.9,422.1c26.4,17.1,54.1,30.3,84.4,38.3
			c-7.9-30.3-21.1-58-38.3-84.4C408.9,394.4,394.4,408.9,375.9,422.1 M87.1,237.4C56.7,244,26.4,254.6,0,269.1
			c26.4,15.8,56.7,26.4,87.1,33C83.1,280.9,83.1,258.5,87.1,237.4 M452.4,302c30.3-6.6,59.4-17.1,87.1-33
			c-26.4-14.5-56.7-26.4-87.1-31.7C456.4,258.5,456.4,280.9,452.4,302 M163.6,118.7c-26.4-17.1-54.1-30.3-84.4-39.6
			c7.9,30.3,21.1,58,38.3,84.4C129.3,145.1,145.1,129.3,163.6,118.7 M237.4,452.4c6.6,30.3,17.1,59.4,33,87.1
			c15.8-26.4,26.4-56.7,33-87.1C280.9,456.4,258.5,456.4,237.4,452.4 M117.4,375.9c-17.1,26.4-30.3,54.1-38.3,84.4
			c30.3-7.9,58-21.1,84.4-38.3C145.1,408.9,129.3,394.4,117.4,375.9"/>
		<path class="st2" d="M306,419.4c0,10.6-1.3,22.4-2.6,33c-22.4,4-43.5,4-65.9,0c-2.6-10.6-2.6-22.4-2.6-33c0-11.9,1.3-23.7,4-35.6
			c21.1,5.3,42.2,5.3,63.3,0C303.4,395.7,304.7,407.6,306,419.4 M383.8,237.4c5.3,21.1,5.3,42.2,0,63.3c11.9,2.6,23.7,4,35.6,4
			c10.6,0,22.4-1.3,33-2.6c4-21.1,4-43.5,0-64.6c-10.6-2.6-22.4-2.6-33-2.6C407.6,233.5,395.7,234.8,383.8,237.4 M373.3,328.4
			c-10.6,18.5-26.4,34.3-44.8,44.8c6.6,10.6,13.2,19.8,22.4,27.7c7.9,7.9,17.1,14.5,26.4,21.1c18.5-13.2,33-27.7,46.2-46.2
			c-6.6-9.2-13.2-18.5-21.1-26.4C393.1,341.6,383.8,333.7,373.3,328.4 M155.6,300.7c-5.3-21.1-5.3-42.2,0-63.3
			c-11.9-2.6-23.7-4-35.6-4c-11.9,0-22.4,1.3-33,4c-4,21.1-4,43.5,0,66c10.6,2.6,22.4,2.6,33,2.6C131.9,306,143.8,304.7,155.6,300.7
			 M328.4,166.2c18.5,10.6,34.3,26.4,44.8,44.8c10.6-6.6,19.8-13.2,27.7-22.4c7.9-7.9,14.5-17.1,21.1-26.4
			c-13.2-18.5-27.7-33-46.2-46.2c-9.2,6.6-18.5,13.2-26.4,21.1C341.6,146.4,333.7,155.6,328.4,166.2 M237.4,154.3
			c21.1-5.3,42.2-5.3,63.3,0c2.6-11.9,4-23.7,4-35.6c0-10.6-1.3-22.4-2.6-33c-22.4-4-43.5-4-65.9,0c-2.6,10.6-2.6,22.4-2.6,33
			C232.1,131.9,234.8,143.8,237.4,154.3 M166.2,211c10.6-18.5,26.4-34.3,44.8-44.8c-6.6-10.6-13.2-19.8-22.4-27.7
			c-7.9-7.9-17.1-14.5-26.4-21.1c-18.5,13.2-33,27.7-46.2,46.2c6.6,9.2,13.2,18.5,21.1,26.4C146.4,197.8,155.6,204.4,166.2,211
			 M211,373.3c-18.5-10.6-34.3-26.4-44.8-44.8c-10.6,6.6-19.8,13.2-27.7,22.4c-7.9,7.9-14.5,17.1-21.1,26.4
			c13.2,18.5,27.7,33,46.2,46.2c9.2-6.6,18.5-13.2,26.4-21.1C197.8,393.1,205.8,383.8,211,373.3"/>
		<path class="st0" d="M2226.5,166.2c15.8,0,29,13.2,29,27.7c0,14.5-13.2,29-27.7,29c-15.8,0-29-13.2-29-27.7l0,0
			C2197.4,178.1,2209.3,166.2,2226.5,166.2C2225.1,166.2,2225.1,166.2,2226.5,166.2 M2226.5,219c13.2,0,25.1-9.2,25.1-22.4
			c0-13.2-9.2-25.1-22.4-25.1c-13.2,0-25.1,9.2-25.1,22.4v1.3C2202.7,207.1,2212,217.6,2226.5,219C2225.1,219,2226.5,219,2226.5,219
			 M2214.6,178.1h11.9c5.3-1.3,10.6,1.3,11.9,6.6c0,1.3,0,1.3,0,2.6c0,5.3-4,9.2-7.9,9.2c0,0,0,0-1.3,0l9.2,14.5h-5.3l-9.2-14.5
			h-5.3V211h-5.3L2214.6,178.1L2214.6,178.1z M2219.9,192.6h5.3c4,0,9.2,0,9.2-5.3c0-5.3-4-5.3-7.9-5.3h-6.6V192.6L2219.9,192.6z"/>
	</g>
	<path class="st0" d="M786.5,504.7H809c11,0,16.2,6.1,16.2,14.4c0,8.1-5.5,13.9-16.8,13.9h-21.9V504.7z M765.9,589.8h20.6V549h16.6
		c12.8,0,19.1,6.3,19.9,17.4c0.9,11,1.1,22.3,3.7,23.5h19.8v-1c-3.6-1.6-3-12.5-4.4-26.9c-1.3-12.4-6.1-17.8-15.5-20.5V541
		c13.1-3.6,18.6-12.7,18.6-24.6c0-16.9-13.1-28.3-32.7-28.3h-46.7V589.8z M681.8,506h21.6c10.2,0,16.2,5.4,16.2,14.9
		c0,9.2-5.7,15.2-16.5,15.2h-21.3V506z M660.4,589.8h21.3v-36.8h25c21.3,0,34-12.9,34-32.1c0-9.4-3.4-17.4-9.1-23.2
		c-6-6.1-14.8-9.5-26.6-9.5h-44.7V589.8z"/>
	<path class="st0" d="M918.1,575.1c-18.6,0-28.2-15.8-28.2-36c0-20.3,9.5-36.1,28.2-36.1s27.7,15.8,27.7,36.1
		C945.9,559.3,936.8,575.1,918.1,575.1z M918,592.1c30,0,48.9-22.5,48.9-52.9c0-30.4-18.9-53.1-48.9-53.1c-30,0-49.1,22.6-49.1,53.1
		C868.9,569.6,888,592.1,918,592.1z"/>
	<path class="st0" d="M1378.3,504.7h22.5c11,0,16.2,6.1,16.2,14.4c0,8.1-5.5,13.9-16.8,13.9h-21.9V504.7z M1357.6,589.8h20.6V549
		h16.6c12.8,0,19.1,6.3,19.9,17.4c0.9,11,1.1,22.3,3.7,23.5h19.8v-1c-3.6-1.6-3-12.5-4.4-26.9c-1.3-12.4-6.1-17.8-15.5-20.5V541
		c13.1-3.6,18.6-12.7,18.6-24.6c0-16.9-13.1-28.3-32.7-28.3h-46.7V589.8z M1254.7,589.8h75.3v-17.2h-54.6v-27.5h47.5v-16.9h-47.5
		v-22.8h54.2v-17.4h-74.8V589.8z M1165,572v-66.3h16.5c17.5,0,26.3,14.1,26.3,34.3s-7.5,32-26.9,32H1165z M1144.3,589.8h38
		c12.8,0,22.6-3.6,30.2-9.8c10.7-9,16.2-23.5,16.2-40c0-30-17.5-51.9-44.7-51.9h-39.7V589.8z M1093,589.8h20.6V488.1H1093V589.8z
		 M1016.9,589.8h18.8l34.3-101.7H1049l-17.8,58.9c-2,6.5-4.4,16.2-4.4,16.2h-0.3c0,0-2.4-9.5-4.4-16.2l-17.9-58.9h-21.6
		L1016.9,589.8z"/>
</g>
</svg>
