<?xml version="1.0" encoding="utf-8"?>
<!-- Generator: Adobe Illustrator 26.3.1, SVG Export Plug-In . SVG Version: 6.00 Build 0)  -->
<svg version="1.1" id="Layer_1" xmlns="http://www.w3.org/2000/svg" xmlns:xlink="http://www.w3.org/1999/xlink" x="0px" y="0px"
	 viewBox="0 0 74.2 74.3" style="enable-background:new 0 0 74.2 74.3;" xml:space="preserve">
<style type="text/css">
	.st0{fill:#444444;}
</style>
<g>
	<path class="st0" d="M63.3,61.2c0-0.1-3.2-5.5-3.8-29C59,8.7,38.4,8,36.1,8c-4.8,0-12.1,1.9-17.1,7c-4.2,4.4-6.1,10.3-5.7,17.6
		c0.9,21-2.3,28.5-2.3,28.6c-0.3,0.7-0.1,1.5,0.6,1.9c0.4,0.2,1.2,0.5,2.8,0.5c2.2,0,6.2-0.5,13.8-2.7c2.8,2,5.8,3.1,8.8,3.1l0,0
		c3,0,5.9-1.1,8.7-3c6.2,2.2,10.6,2.7,13.1,2.7c2.4,0,3.6-0.4,3.8-0.5c0.4-0.2,0.7-0.5,0.9-1C63.6,62.1,63.5,61.6,63.3,61.2z
		 M36.9,61.2L36.9,61.2c-4.3,0-8.8-2.9-11.8-7.4c-2.7-4.1-4.1-9.8-4-15.4c1.7-0.6,4.7-2.4,7.3-7.4c4.1,4.2,13.9,9.6,24.1,9.9
		c-0.3,4.8-1.7,9.4-4,12.9C45.7,58.3,41.2,61.2,36.9,61.2z M48.4,58.9c1.1-1.1,2-2.3,2.9-3.6c2.8-4.3,4.5-10.1,4.5-16l0,0l0,0v-0.1
		c0-0.1,0-0.1,0-0.2V39c0-0.1,0-0.1-0.1-0.2c0,0,0,0,0-0.1c-0.2-0.5-0.7-0.9-1.3-0.9l0,0l0,0l0,0c-12.5,0.3-23.5-7.7-24.9-10.4
		c-0.3-0.5-0.8-0.8-1.4-0.8S27,27,26.7,27.5c-3.3,7.6-7,8.2-7.2,8.2c0,0,0,0-0.1,0c-0.1,0-0.1,0-0.2,0h-0.1c0,0-0.1,0-0.1,0.1
		c0,0-0.1,0-0.1,0.1c0,0-0.1,0-0.1,0.1l-0.1,0.1l-0.1,0.1l-0.1,0.1l-0.1,0.1l-0.1,0.1c0,0,0,0.1-0.1,0.1c0,0,0,0.1-0.1,0.1v0.1
		c0,0.1,0,0.1,0,0.2c0,0,0,0,0,0.1c-0.4,6.5,1.3,13.4,4.5,18.2c0.8,1.2,1.7,2.4,2.7,3.4c-5.9,1.7-9.2,2-11,2l0,0
		c1-3.5,2.7-11.9,2-28.2c-0.3-6.5,1.4-11.7,5-15.5c5.7-5.9,14-6.1,14.9-6.1c1.6,0,7.2,0.3,12.2,3.7c5.3,3.6,8,9.4,8.2,17.4
		c0.4,17.5,2.2,25.4,3.4,28.6C57.9,61,54.3,60.8,48.4,58.9z"/>
	<path class="st0" d="M46.4,49.4c-0.3-0.4-0.7-0.6-1.2-0.6H28.2c-0.5,0-0.9,0.2-1.2,0.6c-0.3,0.4-0.4,0.9-0.2,1.4
		c1.4,4.7,5.5,7.7,10,7.7c4.6,0,8.5-3.1,10-7.7C46.8,50.3,46.7,49.8,46.4,49.4z M36.7,55.4c-2.6,0-4.9-1.4-6.2-3.6h12.5
		C41.6,54,39.3,55.4,36.7,55.4z"/>
</g>
</svg>
