<?xml version="1.0" encoding="utf-8"?>
<!-- Generator: Adobe Illustrator 26.5.0, SVG Export Plug-In . SVG Version: 6.00 Build 0)  -->
<svg version="1.1" id="Layer_1" xmlns="http://www.w3.org/2000/svg" xmlns:xlink="http://www.w3.org/1999/xlink" x="0px" y="0px"
	 viewBox="0 0 74.2 74.3" style="enable-background:new 0 0 74.2 74.3;" xml:space="preserve">
<style type="text/css">
	.st0{fill:#444444;}
</style>
<path class="st0" d="M47.4,46c-0.3,0-0.7-0.1-1-0.3L36.1,39c-0.5-0.3-0.8-0.9-0.8-1.5V21.2c0-1,0.8-1.8,1.8-1.8s1.7,0.8,1.7,1.8
	v15.4l9.5,6.2c0.8,0.5,1,1.6,0.5,2.4C48.5,45.7,48,46,47.4,46z M37.1,14.1C24.4,14.1,14,24.4,14,37.2s10.3,23.1,23.1,23.1
	s23.1-10.3,23.1-23.1S49.8,14.1,37.1,14.1 M37.1,10.6c14.7,0,26.6,11.9,26.6,26.6S51.8,63.7,37.1,63.7S10.5,51.8,10.5,37.2
	S22.4,10.6,37.1,10.6L37.1,10.6z"/>
</svg>
