<?xml version="1.0" encoding="utf-8"?>
<!-- Generator: Adobe Illustrator 27.0.0, SVG Export Plug-In . SVG Version: 6.00 Build 0)  -->
<svg version="1.1" id="Layer_1" xmlns="http://www.w3.org/2000/svg" xmlns:xlink="http://www.w3.org/1999/xlink" x="0px" y="0px"
	 viewBox="0 0 74.2 74.3" style="enable-background:new 0 0 74.2 74.3;" xml:space="preserve">
<style type="text/css">
	.st0{fill:#444444;}
</style>
<path class="st0" d="M63.6,16.9c-1.5-1.4-3.5-2.1-5.6-2.2c0.2-2.2,0.3-4.5,0.2-6.9c0-0.8-0.6-1.4-1.4-1.4H17.4C16.6,6.4,16,7,16,7.8
	c0,2.4,0.1,4.7,0.2,6.9c-2.1,0.1-4.1,0.8-5.6,2.2c-1.7,1.5-2.7,3.7-2.8,6.2c-0.1,3,1,6.2,3.3,8.6c2.4,2.6,5.6,4.1,8.7,4.1
	c0.8,0,1.6-0.1,2.3-0.3c2.1,3.5,4.7,6.3,7.8,8.1c0.5,0.3,1,0.5,1.4,0.7v6.7h-2.7c-0.8,0-1.4,0.6-1.4,1.4V58h-5.3
	c-0.8,0-1.4,0.6-1.4,1.4v7.1c0,0.8,0.6,1.4,1.4,1.4h30.3c0.8,0,1.4-0.6,1.4-1.4v-7.1c0-0.8-0.6-1.4-1.4-1.4H47v-5.6
	c0-0.8-0.6-1.4-1.4-1.4h-2.7v-6.5c0.6-0.2,1.1-0.5,1.7-0.8c3-1.7,5.6-4.5,7.7-8.1c0.7,0.2,1.5,0.3,2.2,0.3c3.1,0,6.3-1.5,8.7-4.1
	c2-2.2,3.2-4.9,3.3-7.7C66.5,21.2,65.6,18.6,63.6,16.9z M13.2,29.7c-1.7-1.9-2.7-4.3-2.5-6.6c0.1-1.7,0.7-3.2,1.9-4.2
	c1.1-1,2.5-1.5,4-1.5c0.7,5.9,2.1,11,4.2,15.3C18.1,33.2,15.2,32,13.2,29.7z M50.8,65.1H23.4v-4.2h5.3h17h5.3V65.1z M44.2,58H30
	v-4.2h2.6c0,0,0.1,0,0.1,0h8.7c0,0,0.1,0,0.1,0h2.6V58z M40,50.9h-5.9v-5.7c1,0.2,2.1,0.4,3.1,0.4c0.9,0,1.8-0.1,2.8-0.3V50.9z
	 M43.1,41.1c-3.8,2.2-8,2.2-11.8-0.1c-2.8-1.7-5.2-4.3-7.2-7.7c0,0,0-0.1,0-0.1c-0.1-0.1-0.1-0.3-0.2-0.4c-3.2-5.9-4.9-14.1-5-23.6
	h36.6c-0.1,9.7-1.9,17.9-5,23.8c-0.1,0.1-0.1,0.2-0.1,0.3c0,0,0,0,0,0C48.3,36.8,45.9,39.5,43.1,41.1z M61,29.7
	c-2.1,2.3-4.9,3.4-7.4,3.1c2-4.3,3.4-9.5,4.1-15.3c1.5,0,2.9,0.5,4,1.5c1.3,1.2,2,2.9,1.9,4.9C63.5,26,62.6,28,61,29.7z"/>
</svg>
