<?xml version="1.0" encoding="utf-8"?>
<!-- Generator: Adobe Illustrator 26.5.0, SVG Export Plug-In . SVG Version: 6.00 Build 0)  -->
<svg version="1.1" id="Layer_1" xmlns="http://www.w3.org/2000/svg" xmlns:xlink="http://www.w3.org/1999/xlink" x="0px" y="0px"
	 viewBox="0 0 390 72" style="enable-background:new 0 0 390 72;" xml:space="preserve">
<style type="text/css">
	.st0{fill:#FCBF02;}
</style>
<g>
	<path class="st0" d="M37.8,0l11.7,23.7l26.1,3.8L56.7,46l4.4,26L37.8,59.7L14.4,72l4.4-26L0,27.5l26.1-3.8L37.8,0z M104.7,23.7
		l-26.1,3.8L97.5,46L93,72l23.4-12.3L139.8,72l-4.4-26l18.9-18.5l-26.1-3.8L116.4,0L104.7,23.7z M183.3,23.7l-26.1,3.8L176.1,46
		l-4.4,26L195,59.7L218.4,72l-4.4-26l18.9-18.5l-26.1-3.8L195,0L183.3,23.7z M261.9,23.7l-26.1,3.8L254.7,46l-4.4,26l23.4-12.3
		L297,72l-4.4-26l18.9-18.5l-26.1-3.8L273.6,0L261.9,23.7z M340.5,23.7l-26.1,3.8L333.3,46l-4.4,26l23.4-12.3L375.6,72l-4.4-26
		L390,27.5l-26.1-3.8L352.2,0L340.5,23.7z"/>
</g>
</svg>
